<svg width="56" height="60" xmlns="http://www.w3.org/2000/svg" xmlns:xlink="http://www.w3.org/1999/xlink" overflow="hidden"><defs><clipPath id="clip0"><rect x="1160" y="348" width="56" height="60"/></clipPath><clipPath id="clip1"><rect x="1160" y="349" width="56" height="59"/></clipPath><clipPath id="clip2"><rect x="1160" y="349" width="56" height="59"/></clipPath><clipPath id="clip3"><rect x="1160" y="349" width="56" height="59"/></clipPath><clipPath id="clip4"><rect x="1194" y="390" width="19" height="15"/></clipPath><clipPath id="clip5"><rect x="1194" y="353" width="19" height="13"/></clipPath><clipPath id="clip6"><rect x="1200" y="374" width="13" height="9"/></clipPath></defs><g clip-path="url(#clip0)" transform="translate(-1160 -348)"><g clip-path="url(#clip1)"><g clip-path="url(#clip2)"><g clip-path="url(#clip3)"><path d="M0 0 56 0 56 56 0 56Z" fill="#FFFFFF" fill-rule="nonzero" fill-opacity="1" transform="matrix(1 0 0 1.05357 1160 349)"/><path d="M0 0 56 0 56 56 0 56Z" fill="#FFFFFF" fill-rule="nonzero" fill-opacity="1" transform="matrix(1 0 0 1.05357 1160 349)"/><path d="M39.3983 20.2895 28.0881 14.2048 16.7783 20.2895 16.7783 34.1757 28.0881 40.2628 39.3983 34.1757ZM36.8871 20.7736 28.0881 25.5081 19.2897 20.7736 28.0881 16.0393ZM18.3943 22.1252 27.2808 26.9097 27.2808 37.9913 18.3943 33.2068ZM28.896 37.9913 28.896 26.9097 37.7831 22.1276 37.7831 33.2068 28.896 37.9913" fill="#FF5757" fill-rule="nonzero" fill-opacity="1" transform="matrix(1 0 0 1.05357 1160 349)"/><g clip-path="url(#clip4)"><path d="M48.2848 44.1874C46.3662 44.1898 44.7131 45.5379 44.3263 47.4168L36.9746 47.4168C36.5283 47.4168 36.1667 47.0552 36.1667 46.6095L36.1667 39.3429 34.5514 39.3429 34.5514 46.6095C34.5514 47.947 35.6365 49.0315 36.9752 49.0315L44.3263 49.0315C44.7516 51.1128 46.7174 52.5087 48.8244 52.2247 50.9309 51.9405 52.4568 50.0734 52.3145 47.9541 52.1721 45.8343 50.4105 44.1874 48.2848 44.1874ZM48.2848 50.6461C46.9461 50.6461 45.8616 49.5612 45.8616 48.2242 45.8616 46.8866 46.9461 45.8016 48.2848 45.8016 49.6236 45.8016 50.7085 46.8866 50.7085 48.2242 50.7085 49.5612 49.6236 50.6461 48.2848 50.6461" fill="#FF5757" fill-rule="nonzero" fill-opacity="1" transform="matrix(1 0 0 1.05357 1160 349)"/></g><path d="M20.0095 46.6089C20.0095 47.0552 19.6478 47.4168 19.2022 47.4168L11.8504 47.4168C11.4357 45.3857 9.54975 43.9991 7.48708 44.2079 5.42383 44.4162 3.8535 46.1516 3.8535 48.2242 3.8535 50.2962 5.42383 52.0322 7.48708 52.2398 9.54975 52.4487 11.4357 51.0621 11.8504 49.0309L19.2022 49.0309C20.5403 49.0309 21.6259 47.947 21.6259 46.6089L21.6259 39.3429 20.0095 39.3429ZM7.89192 50.6461C6.55316 50.6461 5.46875 49.5612 5.46875 48.2242 5.46875 46.8866 6.55316 45.8016 7.89192 45.8016 9.23008 45.8016 10.3157 46.8866 10.3157 48.2242 10.3157 49.5612 9.23008 50.6461 7.89192 50.6461" fill="#FF5757" fill-rule="nonzero" fill-opacity="1" transform="matrix(1 0 0 1.05357 1160 349)"/><g clip-path="url(#clip5)"><path d="M36.1667 9.47042C36.1667 9.02475 36.5283 8.66366 36.9746 8.66366L44.3263 8.66366C44.741 10.6937 46.6269 12.0808 48.6897 11.8726 50.7529 11.6643 52.3233 9.92834 52.3233 7.85634 52.3233 5.78375 50.7529 4.04775 48.6897 3.83949 46.6269 3.63125 44.741 5.01842 44.3263 7.04841L36.9746 7.04841C35.6365 7.04841 34.5508 8.13341 34.5508 9.47042L34.5508 15.9297 36.1667 15.9297ZM48.2848 5.43433C49.6236 5.43433 50.7085 6.51816 50.7085 7.85634 50.7085 9.19392 49.6236 10.2783 48.2848 10.2783 46.9461 10.2783 45.8616 9.19392 45.8616 7.85634 45.8616 6.51816 46.9461 5.43433 48.2848 5.43433" fill="#FF5757" fill-rule="nonzero" fill-opacity="1" transform="matrix(1 0 0 1.05357 1160 349)"/></g><path d="M7.89192 11.893C9.8105 11.8907 11.4637 10.5414 11.8504 8.66366L19.2022 8.66366C19.6478 8.66366 20.0095 9.02475 20.0095 9.47042L20.0095 15.9297 21.6259 15.9297 21.6259 9.47042C21.6259 8.13341 20.5403 7.04841 19.2022 7.04841L11.8504 7.04841C11.4252 4.96708 9.45874 3.57117 7.35234 3.85525 5.24592 4.13992 3.71992 6.00659 3.86225 8.12584 4.00458 10.2457 5.76625 11.8924 7.89192 11.893ZM7.89192 5.43433C9.23008 5.43433 10.3157 6.51816 10.3157 7.85634 10.3157 9.19392 9.23008 10.2783 7.89192 10.2783 6.55316 10.2783 5.46875 9.19392 5.46875 7.85634 5.46875 6.51816 6.55316 5.43433 7.89192 5.43433" fill="#FF5757" fill-rule="nonzero" fill-opacity="1" transform="matrix(1 0 0 1.05357 1160 349)"/><path d="M47.4769 7.04841 49.0927 7.04841 49.0927 8.66366 47.4769 8.66366 47.4769 7.04841" fill="#FF5757" fill-rule="nonzero" fill-opacity="1" transform="matrix(1 0 0 1.05357 1160 349)"/><g clip-path="url(#clip6)"><path d="M48.2848 24.0029C46.3662 24.0053 44.7131 25.354 44.3263 27.2323L41.0141 27.2323 41.0141 28.8476 44.3263 28.8476C44.751 30.9289 46.7174 32.3248 48.8244 32.0402 50.9309 31.756 52.4568 29.8894 52.3145 27.7696 52.1721 25.6504 50.4105 24.0035 48.2848 24.0029ZM48.2848 30.4622C46.9461 30.4622 45.8616 29.3773 45.8616 28.0403 45.8616 26.7021 46.9461 25.6177 48.2848 25.6177 49.6236 25.6177 50.7085 26.7021 50.7085 28.0403 50.7085 29.3773 49.6236 30.4622 48.2848 30.4622" fill="#FF5757" fill-rule="nonzero" fill-opacity="1" transform="matrix(1 0 0 1.05357 1160 349)"/></g><path d="M47.4769 27.2323 49.0927 27.2323 49.0927 28.8476 47.4769 28.8476 47.4769 27.2323" fill="#FF5757" fill-rule="nonzero" fill-opacity="1" transform="matrix(1 0 0 1.05357 1160 349)"/><path d="M47.4769 47.4168 49.0927 47.4168 49.0927 49.0309 47.4769 49.0309 47.4769 47.4168" fill="#FF5757" fill-rule="nonzero" fill-opacity="1" transform="matrix(1 0 0 1.05357 1160 349)"/><path d="M7.084 47.4168 8.69983 47.4168 8.69983 49.0309 7.084 49.0309 7.084 47.4168" fill="#FF5757" fill-rule="nonzero" fill-opacity="1" transform="matrix(1 0 0 1.05357 1160 349)"/><path d="M7.084 7.04841 8.69983 7.04841 8.69983 8.66366 7.084 8.66366 7.084 7.04841" fill="#FF5757" fill-rule="nonzero" fill-opacity="1" transform="matrix(1 0 0 1.05357 1160 349)"/><path d="M7.89192 32.0769C9.8105 32.0746 11.4637 30.7259 11.8504 28.8476L15.1626 28.8476 15.1626 27.2323 11.8504 27.2323C11.4252 25.151 9.45874 23.7551 7.35234 24.0392 5.24592 24.3239 3.71992 26.1905 3.86225 28.3097 4.00458 30.4297 5.76625 32.0764 7.89192 32.0769ZM7.89192 25.6177C9.23008 25.6177 10.3157 26.7021 10.3157 28.0403 10.3157 29.3773 9.23008 30.4622 7.89192 30.4622 6.55316 30.4622 5.46875 29.3773 5.46875 28.0403 5.46875 26.7021 6.55316 25.6177 7.89192 25.6177" fill="#FF5757" fill-rule="nonzero" fill-opacity="1" transform="matrix(1 0 0 1.05357 1160 349)"/><path d="M7.084 27.2323 8.69983 27.2323 8.69983 28.8476 7.084 28.8476 7.084 27.2323" fill="#FF5757" fill-rule="nonzero" fill-opacity="1" transform="matrix(1 0 0 1.05357 1160 349)"/></g></g></g></g></svg>