<?xml version="1.0" encoding="UTF-8"?><svg xmlns="http://www.w3.org/2000/svg" xmlns:xlink="http://www.w3.org/1999/xlink" width="375pt" zoomAndPan="magnify" viewBox="0 0 375 374.999991" height="374.999991pt" preserveAspectRatio="xMidYMid meet" version="1.2"><defs><g/><clipPath xml:id="clip1" id="clip1"><path d="M 82.4375 208.207031 L 115.183594 208.207031 L 115.183594 232.078125 L 82.4375 232.078125 Z M 82.4375 208.207031 "/></clipPath><clipPath xml:id="clip2" id="clip2"><path d="M 26 208 L 59 208 L 59 232.480469 L 26 232.480469 Z M 26 208 "/></clipPath><clipPath xml:id="clip3" id="clip3"><path d="M 82.4375 143.007812 L 115.183594 143.007812 L 115.183594 165.453125 L 82.4375 165.453125 Z M 82.4375 143.007812 "/></clipPath><clipPath xml:id="clip4" id="clip4"><path d="M 94.363281 180.0625 L 115.183594 180.0625 L 115.183594 195 L 94.363281 195 Z M 94.363281 180.0625 "/></clipPath></defs><g xml:id="surface1" id="surface1"><rect x="0" width="375" y="0" height="374.999991" style="fill:rgb(100%,100%,100%);fill-opacity:1;stroke:none;"/><rect x="0" width="375" y="0" height="374.999991" style="fill:rgb(100%,100%,100%);fill-opacity:1;stroke:none;"/><g style="fill:rgb(0%,0%,0%);fill-opacity:1;"><g transform="translate(124.01074, 158.85347)"><path style="stroke:none;" d="M 24.140625 -2.40625 C 24.222656 -2.175781 24.265625 -1.929688 24.265625 -1.671875 C 24.265625 -1.148438 24.085938 -0.722656 23.734375 -0.390625 C 23.378906 -0.0546875 22.972656 0.109375 22.515625 0.109375 C 22.148438 0.109375 21.816406 0 21.515625 -0.21875 C 21.210938 -0.4375 20.972656 -0.738281 20.796875 -1.125 L 18.390625 -6.84375 L 6.375 -6.84375 L 4 -1.09375 C 3.875 -0.695312 3.660156 -0.394531 3.359375 -0.1875 C 3.066406 0.0078125 2.738281 0.109375 2.375 0.109375 C 1.832031 0.109375 1.414062 -0.03125 1.125 -0.3125 C 0.84375 -0.59375 0.703125 -0.984375 0.703125 -1.484375 C 0.703125 -1.578125 0.726562 -1.78125 0.78125 -2.09375 L 10.6875 -26.125 C 10.875 -26.539062 11.128906 -26.859375 11.453125 -27.078125 C 11.773438 -27.296875 12.144531 -27.378906 12.5625 -27.328125 C 12.945312 -27.328125 13.296875 -27.222656 13.609375 -27.015625 C 13.921875 -26.804688 14.140625 -26.507812 14.265625 -26.125 Z M 7.859375 -10.375 L 16.90625 -10.375 L 12.359375 -21.265625 Z M 7.859375 -10.375 "/></g></g><g style="fill:rgb(0%,0%,0%);fill-opacity:1;"><g transform="translate(150.407773, 158.85347)"><path style="stroke:none;" d="M 17.921875 -20.375 C 18.460938 -20.375 18.90625 -20.191406 19.25 -19.828125 C 19.601562 -19.460938 19.78125 -19.019531 19.78125 -18.5 L 19.78125 -8.15625 C 19.78125 -5.46875 19.035156 -3.378906 17.546875 -1.890625 C 16.054688 -0.398438 13.953125 0.34375 11.234375 0.34375 C 8.535156 0.34375 6.445312 -0.398438 4.96875 -1.890625 C 3.5 -3.378906 2.765625 -5.46875 2.765625 -8.15625 L 2.765625 -18.5 C 2.765625 -19.019531 2.9375 -19.460938 3.28125 -19.828125 C 3.632812 -20.191406 4.070312 -20.375 4.59375 -20.375 C 5.132812 -20.375 5.578125 -20.191406 5.921875 -19.828125 C 6.273438 -19.460938 6.453125 -19.019531 6.453125 -18.5 L 6.453125 -8.15625 C 6.453125 -4.769531 8.046875 -3.078125 11.234375 -3.078125 C 12.816406 -3.078125 14.019531 -3.503906 14.84375 -4.359375 C 15.675781 -5.210938 16.09375 -6.476562 16.09375 -8.15625 L 16.09375 -18.5 C 16.09375 -19.019531 16.265625 -19.460938 16.609375 -19.828125 C 16.960938 -20.191406 17.398438 -20.375 17.921875 -20.375 Z M 17.921875 -20.375 "/></g></g><g style="fill:rgb(0%,0%,0%);fill-opacity:1;"><g transform="translate(174.394501, 158.85347)"><path style="stroke:none;" d="M 8.28125 -16.75 L 8.28125 -5.171875 C 8.28125 -3.878906 8.863281 -3.234375 10.03125 -3.234375 C 10.207031 -3.234375 10.453125 -3.273438 10.765625 -3.359375 C 11.078125 -3.453125 11.320312 -3.5 11.5 -3.5 C 11.84375 -3.5 12.128906 -3.351562 12.359375 -3.0625 C 12.597656 -2.78125 12.71875 -2.421875 12.71875 -1.984375 C 12.71875 -1.441406 12.40625 -0.972656 11.78125 -0.578125 C 11.15625 -0.191406 10.457031 0 9.6875 0 C 8.820312 0 8.035156 -0.0859375 7.328125 -0.265625 C 6.617188 -0.453125 5.984375 -0.914062 5.421875 -1.65625 C 4.867188 -2.394531 4.59375 -3.515625 4.59375 -5.015625 L 4.59375 -16.75 L 2.328125 -16.75 C 1.835938 -16.75 1.429688 -16.910156 1.109375 -17.234375 C 0.785156 -17.566406 0.625 -17.976562 0.625 -18.46875 C 0.625 -18.957031 0.785156 -19.359375 1.109375 -19.671875 C 1.429688 -19.984375 1.835938 -20.140625 2.328125 -20.140625 L 4.59375 -20.140625 L 4.59375 -23.40625 C 4.59375 -23.925781 4.765625 -24.363281 5.109375 -24.71875 C 5.460938 -25.082031 5.910156 -25.265625 6.453125 -25.265625 C 6.972656 -25.265625 7.40625 -25.082031 7.75 -24.71875 C 8.101562 -24.363281 8.28125 -23.925781 8.28125 -23.40625 L 8.28125 -20.140625 L 11.5 -20.140625 C 12 -20.140625 12.410156 -19.976562 12.734375 -19.65625 C 13.054688 -19.332031 13.21875 -18.921875 13.21875 -18.421875 C 13.21875 -17.929688 13.054688 -17.53125 12.734375 -17.21875 C 12.410156 -16.90625 12 -16.75 11.5 -16.75 Z M 8.28125 -16.75 "/></g></g><g style="fill:rgb(0%,0%,0%);fill-opacity:1;"><g transform="translate(190.606045, 158.85347)"><path style="stroke:none;" d="M 22.046875 -10.1875 C 22.046875 -8.164062 21.59375 -6.347656 20.6875 -4.734375 C 19.78125 -3.128906 18.539062 -1.875 16.96875 -0.96875 C 15.394531 -0.0625 13.664062 0.390625 11.78125 0.390625 C 9.882812 0.390625 8.148438 -0.0625 6.578125 -0.96875 C 5.015625 -1.875 3.78125 -3.128906 2.875 -4.734375 C 1.96875 -6.347656 1.515625 -8.164062 1.515625 -10.1875 C 1.515625 -12.207031 1.96875 -14.03125 2.875 -15.65625 C 3.78125 -17.289062 5.015625 -18.5625 6.578125 -19.46875 C 8.148438 -20.382812 9.882812 -20.84375 11.78125 -20.84375 C 13.664062 -20.84375 15.394531 -20.382812 16.96875 -19.46875 C 18.539062 -18.5625 19.78125 -17.289062 20.6875 -15.65625 C 21.59375 -14.03125 22.046875 -12.207031 22.046875 -10.1875 Z M 18.34375 -10.1875 C 18.34375 -11.582031 18.050781 -12.832031 17.46875 -13.9375 C 16.882812 -15.039062 16.09375 -15.894531 15.09375 -16.5 C 14.101562 -17.113281 13 -17.421875 11.78125 -17.421875 C 10.5625 -17.421875 9.453125 -17.113281 8.453125 -16.5 C 7.453125 -15.894531 6.660156 -15.039062 6.078125 -13.9375 C 5.492188 -12.832031 5.203125 -11.582031 5.203125 -10.1875 C 5.203125 -8.8125 5.492188 -7.578125 6.078125 -6.484375 C 6.660156 -5.398438 7.453125 -4.550781 8.453125 -3.9375 C 9.453125 -3.332031 10.5625 -3.03125 11.78125 -3.03125 C 13 -3.03125 14.101562 -3.332031 15.09375 -3.9375 C 16.09375 -4.550781 16.882812 -5.398438 17.46875 -6.484375 C 18.050781 -7.578125 18.34375 -8.8125 18.34375 -10.1875 Z M 18.34375 -10.1875 "/></g></g><g style="fill:rgb(0%,0%,0%);fill-opacity:1;"><g transform="translate(215.603547, 158.85347)"><path style="stroke:none;" d="M 26.125 -20.71875 C 30.65625 -20.71875 32.921875 -17.894531 32.921875 -12.25 L 32.921875 -1.859375 C 32.921875 -1.316406 32.753906 -0.867188 32.421875 -0.515625 C 32.085938 -0.171875 31.644531 0 31.09375 0 C 30.550781 0 30.101562 -0.179688 29.75 -0.546875 C 29.40625 -0.910156 29.234375 -1.347656 29.234375 -1.859375 L 29.234375 -12.203125 C 29.234375 -15.597656 27.804688 -17.296875 24.953125 -17.296875 C 23.941406 -17.296875 23.03125 -17.066406 22.21875 -16.609375 C 21.40625 -16.160156 20.769531 -15.546875 20.3125 -14.765625 C 19.851562 -13.992188 19.625 -13.140625 19.625 -12.203125 L 19.625 -1.859375 C 19.625 -1.347656 19.445312 -0.910156 19.09375 -0.546875 C 18.75 -0.179688 18.304688 0 17.765625 0 C 17.222656 0 16.78125 -0.171875 16.4375 -0.515625 C 16.101562 -0.867188 15.9375 -1.316406 15.9375 -1.859375 L 15.9375 -12.25 C 15.9375 -13.78125 15.613281 -15.003906 14.96875 -15.921875 C 14.320312 -16.835938 13.242188 -17.296875 11.734375 -17.296875 C 10.210938 -17.296875 8.953125 -16.8125 7.953125 -15.84375 C 6.953125 -14.875 6.453125 -13.675781 6.453125 -12.25 L 6.453125 -1.859375 C 6.453125 -1.347656 6.273438 -0.910156 5.921875 -0.546875 C 5.578125 -0.179688 5.132812 0 4.59375 0 C 4.039062 0 3.597656 -0.171875 3.265625 -0.515625 C 2.929688 -0.867188 2.765625 -1.316406 2.765625 -1.859375 L 2.765625 -18.5 C 2.765625 -19.019531 2.9375 -19.460938 3.28125 -19.828125 C 3.632812 -20.191406 4.070312 -20.375 4.59375 -20.375 C 5.132812 -20.375 5.578125 -20.191406 5.921875 -19.828125 C 6.273438 -19.460938 6.453125 -19.019531 6.453125 -18.5 L 6.453125 -17.140625 C 7.128906 -18.148438 8.03125 -19 9.15625 -19.6875 C 10.28125 -20.375 11.503906 -20.71875 12.828125 -20.71875 C 16.046875 -20.71875 18.132812 -19.289062 19.09375 -16.4375 C 19.65625 -17.53125 20.597656 -18.515625 21.921875 -19.390625 C 23.242188 -20.273438 24.644531 -20.71875 26.125 -20.71875 Z M 26.125 -20.71875 "/></g></g><g style="fill:rgb(0%,0%,0%);fill-opacity:1;"><g transform="translate(252.730322, 158.85347)"><path style="stroke:none;" d="M 19.28125 -20.640625 C 19.820312 -20.640625 20.265625 -20.460938 20.609375 -20.109375 C 20.960938 -19.765625 21.140625 -19.304688 21.140625 -18.734375 L 21.140625 -1.859375 C 21.140625 -1.347656 20.960938 -0.910156 20.609375 -0.546875 C 20.265625 -0.179688 19.820312 0 19.28125 0 C 18.738281 0 18.296875 -0.171875 17.953125 -0.515625 C 17.617188 -0.867188 17.453125 -1.316406 17.453125 -1.859375 L 17.453125 -2.875 C 16.773438 -1.96875 15.851562 -1.195312 14.6875 -0.5625 C 13.53125 0.0703125 12.273438 0.390625 10.921875 0.390625 C 9.160156 0.390625 7.5625 -0.0625 6.125 -0.96875 C 4.6875 -1.875 3.554688 -3.132812 2.734375 -4.75 C 1.921875 -6.375 1.515625 -8.195312 1.515625 -10.21875 C 1.515625 -12.238281 1.921875 -14.054688 2.734375 -15.671875 C 3.554688 -17.296875 4.675781 -18.5625 6.09375 -19.46875 C 7.519531 -20.382812 9.09375 -20.84375 10.8125 -20.84375 C 12.1875 -20.84375 13.460938 -20.554688 14.640625 -19.984375 C 15.816406 -19.410156 16.753906 -18.6875 17.453125 -17.8125 L 17.453125 -18.734375 C 17.453125 -19.273438 17.617188 -19.726562 17.953125 -20.09375 C 18.296875 -20.457031 18.738281 -20.640625 19.28125 -20.640625 Z M 11.34375 -3.03125 C 12.5625 -3.03125 13.644531 -3.335938 14.59375 -3.953125 C 15.539062 -4.578125 16.28125 -5.429688 16.8125 -6.515625 C 17.34375 -7.609375 17.609375 -8.84375 17.609375 -10.21875 C 17.609375 -11.570312 17.34375 -12.789062 16.8125 -13.875 C 16.28125 -14.96875 15.539062 -15.832031 14.59375 -16.46875 C 13.644531 -17.101562 12.5625 -17.421875 11.34375 -17.421875 C 10.132812 -17.421875 9.054688 -17.109375 8.109375 -16.484375 C 7.160156 -15.859375 6.421875 -15 5.890625 -13.90625 C 5.359375 -12.820312 5.09375 -11.59375 5.09375 -10.21875 C 5.09375 -8.84375 5.359375 -7.609375 5.890625 -6.515625 C 6.421875 -5.429688 7.160156 -4.578125 8.109375 -3.953125 C 9.054688 -3.335938 10.132812 -3.03125 11.34375 -3.03125 Z M 11.34375 -3.03125 "/></g></g><g style="fill:rgb(0%,0%,0%);fill-opacity:1;"><g transform="translate(278.03883, 158.85347)"><path style="stroke:none;" d="M 8.28125 -16.75 L 8.28125 -5.171875 C 8.28125 -3.878906 8.863281 -3.234375 10.03125 -3.234375 C 10.207031 -3.234375 10.453125 -3.273438 10.765625 -3.359375 C 11.078125 -3.453125 11.320312 -3.5 11.5 -3.5 C 11.84375 -3.5 12.128906 -3.351562 12.359375 -3.0625 C 12.597656 -2.78125 12.71875 -2.421875 12.71875 -1.984375 C 12.71875 -1.441406 12.40625 -0.972656 11.78125 -0.578125 C 11.15625 -0.191406 10.457031 0 9.6875 0 C 8.820312 0 8.035156 -0.0859375 7.328125 -0.265625 C 6.617188 -0.453125 5.984375 -0.914062 5.421875 -1.65625 C 4.867188 -2.394531 4.59375 -3.515625 4.59375 -5.015625 L 4.59375 -16.75 L 2.328125 -16.75 C 1.835938 -16.75 1.429688 -16.910156 1.109375 -17.234375 C 0.785156 -17.566406 0.625 -17.976562 0.625 -18.46875 C 0.625 -18.957031 0.785156 -19.359375 1.109375 -19.671875 C 1.429688 -19.984375 1.835938 -20.140625 2.328125 -20.140625 L 4.59375 -20.140625 L 4.59375 -23.40625 C 4.59375 -23.925781 4.765625 -24.363281 5.109375 -24.71875 C 5.460938 -25.082031 5.910156 -25.265625 6.453125 -25.265625 C 6.972656 -25.265625 7.40625 -25.082031 7.75 -24.71875 C 8.101562 -24.363281 8.28125 -23.925781 8.28125 -23.40625 L 8.28125 -20.140625 L 11.5 -20.140625 C 12 -20.140625 12.410156 -19.976562 12.734375 -19.65625 C 13.054688 -19.332031 13.21875 -18.921875 13.21875 -18.421875 C 13.21875 -17.929688 13.054688 -17.53125 12.734375 -17.21875 C 12.410156 -16.90625 12 -16.75 11.5 -16.75 Z M 8.28125 -16.75 "/></g></g><g style="fill:rgb(0%,0%,0%);fill-opacity:1;"><g transform="translate(294.250373, 158.85347)"><path style="stroke:none;" d="M 20.640625 -10.96875 C 20.617188 -10.5 20.425781 -10.101562 20.0625 -9.78125 C 19.695312 -9.457031 19.269531 -9.296875 18.78125 -9.296875 L 5.09375 -9.296875 C 5.269531 -7.398438 5.988281 -5.878906 7.25 -4.734375 C 8.507812 -3.597656 10.046875 -3.03125 11.859375 -3.03125 C 13.097656 -3.03125 14.109375 -3.210938 14.890625 -3.578125 C 15.671875 -3.941406 16.359375 -4.40625 16.953125 -4.96875 C 17.335938 -5.207031 17.710938 -5.328125 18.078125 -5.328125 C 18.515625 -5.328125 18.878906 -5.171875 19.171875 -4.859375 C 19.472656 -4.546875 19.625 -4.179688 19.625 -3.765625 C 19.625 -3.222656 19.367188 -2.734375 18.859375 -2.296875 C 18.109375 -1.546875 17.109375 -0.910156 15.859375 -0.390625 C 14.617188 0.128906 13.347656 0.390625 12.046875 0.390625 C 9.953125 0.390625 8.109375 -0.046875 6.515625 -0.921875 C 4.921875 -1.804688 3.6875 -3.039062 2.8125 -4.625 C 1.945312 -6.207031 1.515625 -7.992188 1.515625 -9.984375 C 1.515625 -12.160156 1.960938 -14.070312 2.859375 -15.71875 C 3.753906 -17.363281 4.929688 -18.628906 6.390625 -19.515625 C 7.859375 -20.398438 9.4375 -20.84375 11.125 -20.84375 C 12.78125 -20.84375 14.332031 -20.410156 15.78125 -19.546875 C 17.226562 -18.691406 18.394531 -17.515625 19.28125 -16.015625 C 20.164062 -14.515625 20.617188 -12.832031 20.640625 -10.96875 Z M 11.125 -17.421875 C 9.664062 -17.421875 8.40625 -17.007812 7.34375 -16.1875 C 6.28125 -15.375 5.582031 -14.113281 5.25 -12.40625 L 16.71875 -12.40625 L 16.71875 -12.71875 C 16.582031 -14.082031 15.960938 -15.207031 14.859375 -16.09375 C 13.765625 -16.976562 12.519531 -17.421875 11.125 -17.421875 Z M 11.125 -17.421875 "/></g></g><g style="fill:rgb(0%,0%,0%);fill-opacity:1;"><g transform="translate(317.848347, 158.85347)"><path style="stroke:none;" d="M 19.28125 -28.765625 C 19.820312 -28.765625 20.265625 -28.585938 20.609375 -28.234375 C 20.960938 -27.890625 21.140625 -27.445312 21.140625 -26.90625 L 21.140625 -1.859375 C 21.140625 -1.347656 20.960938 -0.910156 20.609375 -0.546875 C 20.265625 -0.179688 19.820312 0 19.28125 0 C 18.738281 0 18.296875 -0.171875 17.953125 -0.515625 C 17.617188 -0.867188 17.453125 -1.316406 17.453125 -1.859375 L 17.453125 -2.953125 C 16.804688 -2.023438 15.894531 -1.234375 14.71875 -0.578125 C 13.539062 0.0664062 12.273438 0.390625 10.921875 0.390625 C 9.160156 0.390625 7.566406 -0.0625 6.140625 -0.96875 C 4.710938 -1.875 3.582031 -3.132812 2.75 -4.75 C 1.925781 -6.375 1.515625 -8.195312 1.515625 -10.21875 C 1.515625 -12.238281 1.921875 -14.054688 2.734375 -15.671875 C 3.554688 -17.296875 4.675781 -18.5625 6.09375 -19.46875 C 7.519531 -20.382812 9.09375 -20.84375 10.8125 -20.84375 C 12.1875 -20.84375 13.453125 -20.554688 14.609375 -19.984375 C 15.773438 -19.410156 16.722656 -18.671875 17.453125 -17.765625 L 17.453125 -26.90625 C 17.453125 -27.445312 17.617188 -27.890625 17.953125 -28.234375 C 18.296875 -28.585938 18.738281 -28.765625 19.28125 -28.765625 Z M 11.34375 -3.03125 C 12.5625 -3.03125 13.644531 -3.335938 14.59375 -3.953125 C 15.539062 -4.578125 16.28125 -5.429688 16.8125 -6.515625 C 17.34375 -7.609375 17.609375 -8.84375 17.609375 -10.21875 C 17.609375 -11.570312 17.34375 -12.796875 16.8125 -13.890625 C 16.28125 -14.992188 15.539062 -15.859375 14.59375 -16.484375 C 13.644531 -17.109375 12.5625 -17.421875 11.34375 -17.421875 C 10.132812 -17.421875 9.054688 -17.109375 8.109375 -16.484375 C 7.160156 -15.859375 6.421875 -14.992188 5.890625 -13.890625 C 5.359375 -12.796875 5.09375 -11.570312 5.09375 -10.21875 C 5.09375 -8.84375 5.359375 -7.609375 5.890625 -6.515625 C 6.421875 -5.429688 7.160156 -4.578125 8.109375 -3.953125 C 9.054688 -3.335938 10.132812 -3.03125 11.34375 -3.03125 Z M 11.34375 -3.03125 "/></g></g><g style="fill:rgb(0%,0%,0%);fill-opacity:1;"><g transform="translate(124.01074, 202.172584)"><path style="stroke:none;" d="M 26.859375 -27.25 C 27.378906 -27.226562 27.820312 -27.039062 28.1875 -26.6875 C 28.550781 -26.332031 28.734375 -25.898438 28.734375 -25.390625 L 28.734375 -1.859375 C 28.734375 -1.347656 28.554688 -0.910156 28.203125 -0.546875 C 27.847656 -0.179688 27.390625 0 26.828125 0 C 26.253906 0 25.785156 -0.171875 25.421875 -0.515625 C 25.054688 -0.867188 24.875 -1.316406 24.875 -1.859375 L 24.875 -19.859375 L 17.34375 -8.4375 C 17.15625 -8.207031 16.925781 -8.015625 16.65625 -7.859375 C 16.382812 -7.703125 16.109375 -7.632812 15.828125 -7.65625 C 15.566406 -7.632812 15.296875 -7.703125 15.015625 -7.859375 C 14.742188 -8.015625 14.519531 -8.207031 14.34375 -8.4375 L 6.765625 -20.21875 L 6.765625 -1.859375 C 6.765625 -1.316406 6.601562 -0.867188 6.28125 -0.515625 C 5.957031 -0.171875 5.519531 0 4.96875 0 C 4.457031 0 4.039062 -0.171875 3.71875 -0.515625 C 3.394531 -0.867188 3.234375 -1.316406 3.234375 -1.859375 L 3.234375 -25.390625 C 3.234375 -25.878906 3.410156 -26.3125 3.765625 -26.6875 C 4.128906 -27.0625 4.582031 -27.25 5.125 -27.25 C 5.4375 -27.25 5.738281 -27.171875 6.03125 -27.015625 C 6.332031 -26.859375 6.578125 -26.648438 6.765625 -26.390625 L 15.984375 -12.4375 L 25.3125 -26.390625 C 25.726562 -26.960938 26.242188 -27.25 26.859375 -27.25 Z M 26.859375 -27.25 "/></g></g><g style="fill:rgb(0%,0%,0%);fill-opacity:1;"><g transform="translate(157.405431, 202.172584)"><path style="stroke:none;" d="M 20.640625 -10.96875 C 20.617188 -10.5 20.425781 -10.101562 20.0625 -9.78125 C 19.695312 -9.457031 19.269531 -9.296875 18.78125 -9.296875 L 5.09375 -9.296875 C 5.269531 -7.398438 5.988281 -5.878906 7.25 -4.734375 C 8.507812 -3.597656 10.046875 -3.03125 11.859375 -3.03125 C 13.097656 -3.03125 14.109375 -3.210938 14.890625 -3.578125 C 15.671875 -3.941406 16.359375 -4.40625 16.953125 -4.96875 C 17.335938 -5.207031 17.710938 -5.328125 18.078125 -5.328125 C 18.515625 -5.328125 18.878906 -5.171875 19.171875 -4.859375 C 19.472656 -4.546875 19.625 -4.179688 19.625 -3.765625 C 19.625 -3.222656 19.367188 -2.734375 18.859375 -2.296875 C 18.109375 -1.546875 17.109375 -0.910156 15.859375 -0.390625 C 14.617188 0.128906 13.347656 0.390625 12.046875 0.390625 C 9.953125 0.390625 8.109375 -0.046875 6.515625 -0.921875 C 4.921875 -1.804688 3.6875 -3.039062 2.8125 -4.625 C 1.945312 -6.207031 1.515625 -7.992188 1.515625 -9.984375 C 1.515625 -12.160156 1.960938 -14.070312 2.859375 -15.71875 C 3.753906 -17.363281 4.929688 -18.628906 6.390625 -19.515625 C 7.859375 -20.398438 9.4375 -20.84375 11.125 -20.84375 C 12.78125 -20.84375 14.332031 -20.410156 15.78125 -19.546875 C 17.226562 -18.691406 18.394531 -17.515625 19.28125 -16.015625 C 20.164062 -14.515625 20.617188 -12.832031 20.640625 -10.96875 Z M 11.125 -17.421875 C 9.664062 -17.421875 8.40625 -17.007812 7.34375 -16.1875 C 6.28125 -15.375 5.582031 -14.113281 5.25 -12.40625 L 16.71875 -12.40625 L 16.71875 -12.71875 C 16.582031 -14.082031 15.960938 -15.207031 14.859375 -16.09375 C 13.765625 -16.976562 12.519531 -17.421875 11.125 -17.421875 Z M 11.125 -17.421875 "/></g></g><g style="fill:rgb(0%,0%,0%);fill-opacity:1;"><g transform="translate(181.003397, 202.172584)"><path style="stroke:none;" d="M 8.28125 -16.75 L 8.28125 -5.171875 C 8.28125 -3.878906 8.863281 -3.234375 10.03125 -3.234375 C 10.207031 -3.234375 10.453125 -3.273438 10.765625 -3.359375 C 11.078125 -3.453125 11.320312 -3.5 11.5 -3.5 C 11.84375 -3.5 12.128906 -3.351562 12.359375 -3.0625 C 12.597656 -2.78125 12.71875 -2.421875 12.71875 -1.984375 C 12.71875 -1.441406 12.40625 -0.972656 11.78125 -0.578125 C 11.15625 -0.191406 10.457031 0 9.6875 0 C 8.820312 0 8.035156 -0.0859375 7.328125 -0.265625 C 6.617188 -0.453125 5.984375 -0.914062 5.421875 -1.65625 C 4.867188 -2.394531 4.59375 -3.515625 4.59375 -5.015625 L 4.59375 -16.75 L 2.328125 -16.75 C 1.835938 -16.75 1.429688 -16.910156 1.109375 -17.234375 C 0.785156 -17.566406 0.625 -17.976562 0.625 -18.46875 C 0.625 -18.957031 0.785156 -19.359375 1.109375 -19.671875 C 1.429688 -19.984375 1.835938 -20.140625 2.328125 -20.140625 L 4.59375 -20.140625 L 4.59375 -23.40625 C 4.59375 -23.925781 4.765625 -24.363281 5.109375 -24.71875 C 5.460938 -25.082031 5.910156 -25.265625 6.453125 -25.265625 C 6.972656 -25.265625 7.40625 -25.082031 7.75 -24.71875 C 8.101562 -24.363281 8.28125 -23.925781 8.28125 -23.40625 L 8.28125 -20.140625 L 11.5 -20.140625 C 12 -20.140625 12.410156 -19.976562 12.734375 -19.65625 C 13.054688 -19.332031 13.21875 -18.921875 13.21875 -18.421875 C 13.21875 -17.929688 13.054688 -17.53125 12.734375 -17.21875 C 12.410156 -16.90625 12 -16.75 11.5 -16.75 Z M 8.28125 -16.75 "/></g></g><g style="fill:rgb(0%,0%,0%);fill-opacity:1;"><g transform="translate(197.21494, 202.172584)"><path style="stroke:none;" d="M 19.28125 -20.640625 C 19.820312 -20.640625 20.265625 -20.460938 20.609375 -20.109375 C 20.960938 -19.765625 21.140625 -19.304688 21.140625 -18.734375 L 21.140625 -1.859375 C 21.140625 -1.347656 20.960938 -0.910156 20.609375 -0.546875 C 20.265625 -0.179688 19.820312 0 19.28125 0 C 18.738281 0 18.296875 -0.171875 17.953125 -0.515625 C 17.617188 -0.867188 17.453125 -1.316406 17.453125 -1.859375 L 17.453125 -2.875 C 16.773438 -1.96875 15.851562 -1.195312 14.6875 -0.5625 C 13.53125 0.0703125 12.273438 0.390625 10.921875 0.390625 C 9.160156 0.390625 7.5625 -0.0625 6.125 -0.96875 C 4.6875 -1.875 3.554688 -3.132812 2.734375 -4.75 C 1.921875 -6.375 1.515625 -8.195312 1.515625 -10.21875 C 1.515625 -12.238281 1.921875 -14.054688 2.734375 -15.671875 C 3.554688 -17.296875 4.675781 -18.5625 6.09375 -19.46875 C 7.519531 -20.382812 9.09375 -20.84375 10.8125 -20.84375 C 12.1875 -20.84375 13.460938 -20.554688 14.640625 -19.984375 C 15.816406 -19.410156 16.753906 -18.6875 17.453125 -17.8125 L 17.453125 -18.734375 C 17.453125 -19.273438 17.617188 -19.726562 17.953125 -20.09375 C 18.296875 -20.457031 18.738281 -20.640625 19.28125 -20.640625 Z M 11.34375 -3.03125 C 12.5625 -3.03125 13.644531 -3.335938 14.59375 -3.953125 C 15.539062 -4.578125 16.28125 -5.429688 16.8125 -6.515625 C 17.34375 -7.609375 17.609375 -8.84375 17.609375 -10.21875 C 17.609375 -11.570312 17.34375 -12.789062 16.8125 -13.875 C 16.28125 -14.96875 15.539062 -15.832031 14.59375 -16.46875 C 13.644531 -17.101562 12.5625 -17.421875 11.34375 -17.421875 C 10.132812 -17.421875 9.054688 -17.109375 8.109375 -16.484375 C 7.160156 -15.859375 6.421875 -15 5.890625 -13.90625 C 5.359375 -12.820312 5.09375 -11.59375 5.09375 -10.21875 C 5.09375 -8.84375 5.359375 -7.609375 5.890625 -6.515625 C 6.421875 -5.429688 7.160156 -4.578125 8.109375 -3.953125 C 9.054688 -3.335938 10.132812 -3.03125 11.34375 -3.03125 Z M 11.34375 -3.03125 "/></g></g><g style="fill:rgb(0%,0%,0%);fill-opacity:1;"><g transform="translate(222.523453, 202.172584)"><path style="stroke:none;" d="M 19.28125 -28.765625 C 19.820312 -28.765625 20.265625 -28.585938 20.609375 -28.234375 C 20.960938 -27.890625 21.140625 -27.445312 21.140625 -26.90625 L 21.140625 -1.859375 C 21.140625 -1.347656 20.960938 -0.910156 20.609375 -0.546875 C 20.265625 -0.179688 19.820312 0 19.28125 0 C 18.738281 0 18.296875 -0.171875 17.953125 -0.515625 C 17.617188 -0.867188 17.453125 -1.316406 17.453125 -1.859375 L 17.453125 -2.953125 C 16.804688 -2.023438 15.894531 -1.234375 14.71875 -0.578125 C 13.539062 0.0664062 12.273438 0.390625 10.921875 0.390625 C 9.160156 0.390625 7.566406 -0.0625 6.140625 -0.96875 C 4.710938 -1.875 3.582031 -3.132812 2.75 -4.75 C 1.925781 -6.375 1.515625 -8.195312 1.515625 -10.21875 C 1.515625 -12.238281 1.921875 -14.054688 2.734375 -15.671875 C 3.554688 -17.296875 4.675781 -18.5625 6.09375 -19.46875 C 7.519531 -20.382812 9.09375 -20.84375 10.8125 -20.84375 C 12.1875 -20.84375 13.453125 -20.554688 14.609375 -19.984375 C 15.773438 -19.410156 16.722656 -18.671875 17.453125 -17.765625 L 17.453125 -26.90625 C 17.453125 -27.445312 17.617188 -27.890625 17.953125 -28.234375 C 18.296875 -28.585938 18.738281 -28.765625 19.28125 -28.765625 Z M 11.34375 -3.03125 C 12.5625 -3.03125 13.644531 -3.335938 14.59375 -3.953125 C 15.539062 -4.578125 16.28125 -5.429688 16.8125 -6.515625 C 17.34375 -7.609375 17.609375 -8.84375 17.609375 -10.21875 C 17.609375 -11.570312 17.34375 -12.796875 16.8125 -13.890625 C 16.28125 -14.992188 15.539062 -15.859375 14.59375 -16.484375 C 13.644531 -17.109375 12.5625 -17.421875 11.34375 -17.421875 C 10.132812 -17.421875 9.054688 -17.109375 8.109375 -16.484375 C 7.160156 -15.859375 6.421875 -14.992188 5.890625 -13.890625 C 5.359375 -12.796875 5.09375 -11.570312 5.09375 -10.21875 C 5.09375 -8.84375 5.359375 -7.609375 5.890625 -6.515625 C 6.421875 -5.429688 7.160156 -4.578125 8.109375 -3.953125 C 9.054688 -3.335938 10.132812 -3.03125 11.34375 -3.03125 Z M 11.34375 -3.03125 "/></g></g><g style="fill:rgb(0%,0%,0%);fill-opacity:1;"><g transform="translate(247.83196, 202.172584)"><path style="stroke:none;" d="M 19.28125 -20.640625 C 19.820312 -20.640625 20.265625 -20.460938 20.609375 -20.109375 C 20.960938 -19.765625 21.140625 -19.304688 21.140625 -18.734375 L 21.140625 -1.859375 C 21.140625 -1.347656 20.960938 -0.910156 20.609375 -0.546875 C 20.265625 -0.179688 19.820312 0 19.28125 0 C 18.738281 0 18.296875 -0.171875 17.953125 -0.515625 C 17.617188 -0.867188 17.453125 -1.316406 17.453125 -1.859375 L 17.453125 -2.875 C 16.773438 -1.96875 15.851562 -1.195312 14.6875 -0.5625 C 13.53125 0.0703125 12.273438 0.390625 10.921875 0.390625 C 9.160156 0.390625 7.5625 -0.0625 6.125 -0.96875 C 4.6875 -1.875 3.554688 -3.132812 2.734375 -4.75 C 1.921875 -6.375 1.515625 -8.195312 1.515625 -10.21875 C 1.515625 -12.238281 1.921875 -14.054688 2.734375 -15.671875 C 3.554688 -17.296875 4.675781 -18.5625 6.09375 -19.46875 C 7.519531 -20.382812 9.09375 -20.84375 10.8125 -20.84375 C 12.1875 -20.84375 13.460938 -20.554688 14.640625 -19.984375 C 15.816406 -19.410156 16.753906 -18.6875 17.453125 -17.8125 L 17.453125 -18.734375 C 17.453125 -19.273438 17.617188 -19.726562 17.953125 -20.09375 C 18.296875 -20.457031 18.738281 -20.640625 19.28125 -20.640625 Z M 11.34375 -3.03125 C 12.5625 -3.03125 13.644531 -3.335938 14.59375 -3.953125 C 15.539062 -4.578125 16.28125 -5.429688 16.8125 -6.515625 C 17.34375 -7.609375 17.609375 -8.84375 17.609375 -10.21875 C 17.609375 -11.570312 17.34375 -12.789062 16.8125 -13.875 C 16.28125 -14.96875 15.539062 -15.832031 14.59375 -16.46875 C 13.644531 -17.101562 12.5625 -17.421875 11.34375 -17.421875 C 10.132812 -17.421875 9.054688 -17.109375 8.109375 -16.484375 C 7.160156 -15.859375 6.421875 -15 5.890625 -13.90625 C 5.359375 -12.820312 5.09375 -11.59375 5.09375 -10.21875 C 5.09375 -8.84375 5.359375 -7.609375 5.890625 -6.515625 C 6.421875 -5.429688 7.160156 -4.578125 8.109375 -3.953125 C 9.054688 -3.335938 10.132812 -3.03125 11.34375 -3.03125 Z M 11.34375 -3.03125 "/></g></g><g style="fill:rgb(0%,0%,0%);fill-opacity:1;"><g transform="translate(273.140468, 202.172584)"><path style="stroke:none;" d="M 8.28125 -16.75 L 8.28125 -5.171875 C 8.28125 -3.878906 8.863281 -3.234375 10.03125 -3.234375 C 10.207031 -3.234375 10.453125 -3.273438 10.765625 -3.359375 C 11.078125 -3.453125 11.320312 -3.5 11.5 -3.5 C 11.84375 -3.5 12.128906 -3.351562 12.359375 -3.0625 C 12.597656 -2.78125 12.71875 -2.421875 12.71875 -1.984375 C 12.71875 -1.441406 12.40625 -0.972656 11.78125 -0.578125 C 11.15625 -0.191406 10.457031 0 9.6875 0 C 8.820312 0 8.035156 -0.0859375 7.328125 -0.265625 C 6.617188 -0.453125 5.984375 -0.914062 5.421875 -1.65625 C 4.867188 -2.394531 4.59375 -3.515625 4.59375 -5.015625 L 4.59375 -16.75 L 2.328125 -16.75 C 1.835938 -16.75 1.429688 -16.910156 1.109375 -17.234375 C 0.785156 -17.566406 0.625 -17.976562 0.625 -18.46875 C 0.625 -18.957031 0.785156 -19.359375 1.109375 -19.671875 C 1.429688 -19.984375 1.835938 -20.140625 2.328125 -20.140625 L 4.59375 -20.140625 L 4.59375 -23.40625 C 4.59375 -23.925781 4.765625 -24.363281 5.109375 -24.71875 C 5.460938 -25.082031 5.910156 -25.265625 6.453125 -25.265625 C 6.972656 -25.265625 7.40625 -25.082031 7.75 -24.71875 C 8.101562 -24.363281 8.28125 -23.925781 8.28125 -23.40625 L 8.28125 -20.140625 L 11.5 -20.140625 C 12 -20.140625 12.410156 -19.976562 12.734375 -19.65625 C 13.054688 -19.332031 13.21875 -18.921875 13.21875 -18.421875 C 13.21875 -17.929688 13.054688 -17.53125 12.734375 -17.21875 C 12.410156 -16.90625 12 -16.75 11.5 -16.75 Z M 8.28125 -16.75 "/></g></g><g style="fill:rgb(0%,0%,0%);fill-opacity:1;"><g transform="translate(289.352011, 202.172584)"><path style="stroke:none;" d="M 19.28125 -20.640625 C 19.820312 -20.640625 20.265625 -20.460938 20.609375 -20.109375 C 20.960938 -19.765625 21.140625 -19.304688 21.140625 -18.734375 L 21.140625 -1.859375 C 21.140625 -1.347656 20.960938 -0.910156 20.609375 -0.546875 C 20.265625 -0.179688 19.820312 0 19.28125 0 C 18.738281 0 18.296875 -0.171875 17.953125 -0.515625 C 17.617188 -0.867188 17.453125 -1.316406 17.453125 -1.859375 L 17.453125 -2.875 C 16.773438 -1.96875 15.851562 -1.195312 14.6875 -0.5625 C 13.53125 0.0703125 12.273438 0.390625 10.921875 0.390625 C 9.160156 0.390625 7.5625 -0.0625 6.125 -0.96875 C 4.6875 -1.875 3.554688 -3.132812 2.734375 -4.75 C 1.921875 -6.375 1.515625 -8.195312 1.515625 -10.21875 C 1.515625 -12.238281 1.921875 -14.054688 2.734375 -15.671875 C 3.554688 -17.296875 4.675781 -18.5625 6.09375 -19.46875 C 7.519531 -20.382812 9.09375 -20.84375 10.8125 -20.84375 C 12.1875 -20.84375 13.460938 -20.554688 14.640625 -19.984375 C 15.816406 -19.410156 16.753906 -18.6875 17.453125 -17.8125 L 17.453125 -18.734375 C 17.453125 -19.273438 17.617188 -19.726562 17.953125 -20.09375 C 18.296875 -20.457031 18.738281 -20.640625 19.28125 -20.640625 Z M 11.34375 -3.03125 C 12.5625 -3.03125 13.644531 -3.335938 14.59375 -3.953125 C 15.539062 -4.578125 16.28125 -5.429688 16.8125 -6.515625 C 17.34375 -7.609375 17.609375 -8.84375 17.609375 -10.21875 C 17.609375 -11.570312 17.34375 -12.789062 16.8125 -13.875 C 16.28125 -14.96875 15.539062 -15.832031 14.59375 -16.46875 C 13.644531 -17.101562 12.5625 -17.421875 11.34375 -17.421875 C 10.132812 -17.421875 9.054688 -17.109375 8.109375 -16.484375 C 7.160156 -15.859375 6.421875 -15 5.890625 -13.90625 C 5.359375 -12.820312 5.09375 -11.59375 5.09375 -10.21875 C 5.09375 -8.84375 5.359375 -7.609375 5.890625 -6.515625 C 6.421875 -5.429688 7.160156 -4.578125 8.109375 -3.953125 C 9.054688 -3.335938 10.132812 -3.03125 11.34375 -3.03125 Z M 11.34375 -3.03125 "/></g></g><g style="fill:rgb(0%,0%,0%);fill-opacity:1;"><g transform="translate(124.01074, 245.491699)"><path style="stroke:none;" d="M 23.203125 -14.3125 C 23.722656 -14.3125 24.15625 -14.128906 24.5 -13.765625 C 24.851562 -13.398438 25.03125 -12.957031 25.03125 -12.4375 L 25.03125 -3.6875 C 25.03125 -2.988281 24.722656 -2.445312 24.109375 -2.0625 C 22.910156 -1.28125 21.597656 -0.675781 20.171875 -0.25 C 18.742188 0.175781 17.28125 0.390625 15.78125 0.390625 C 13.1875 0.390625 10.804688 -0.226562 8.640625 -1.46875 C 6.484375 -2.71875 4.78125 -4.410156 3.53125 -6.546875 C 2.289062 -8.679688 1.671875 -11.035156 1.671875 -13.609375 C 1.671875 -16.171875 2.289062 -18.519531 3.53125 -20.65625 C 4.78125 -22.800781 6.484375 -24.492188 8.640625 -25.734375 C 10.804688 -26.972656 13.1875 -27.59375 15.78125 -27.59375 C 17.082031 -27.59375 18.332031 -27.453125 19.53125 -27.171875 C 20.738281 -26.890625 21.820312 -26.460938 22.78125 -25.890625 C 23.09375 -25.710938 23.328125 -25.492188 23.484375 -25.234375 C 23.640625 -24.972656 23.71875 -24.6875 23.71875 -24.375 C 23.71875 -23.851562 23.539062 -23.40625 23.1875 -23.03125 C 22.84375 -22.65625 22.421875 -22.46875 21.921875 -22.46875 C 21.535156 -22.46875 21.203125 -22.554688 20.921875 -22.734375 C 19.234375 -23.515625 17.519531 -23.90625 15.78125 -23.90625 C 13.914062 -23.90625 12.210938 -23.453125 10.671875 -22.546875 C 9.128906 -21.640625 7.910156 -20.394531 7.015625 -18.8125 C 6.117188 -17.226562 5.671875 -15.492188 5.671875 -13.609375 C 5.671875 -11.710938 6.117188 -9.976562 7.015625 -8.40625 C 7.910156 -6.84375 9.128906 -5.597656 10.671875 -4.671875 C 12.210938 -3.753906 13.914062 -3.296875 15.78125 -3.296875 C 16.664062 -3.296875 17.59375 -3.398438 18.5625 -3.609375 C 19.53125 -3.816406 20.363281 -4.09375 21.0625 -4.4375 L 21.0625 -10.609375 L 16.359375 -10.609375 C 15.847656 -10.609375 15.410156 -10.78125 15.046875 -11.125 C 14.679688 -11.476562 14.5 -11.914062 14.5 -12.4375 C 14.5 -12.976562 14.679688 -13.425781 15.046875 -13.78125 C 15.410156 -14.132812 15.847656 -14.3125 16.359375 -14.3125 Z M 23.203125 -14.3125 "/></g></g><g style="fill:rgb(0%,0%,0%);fill-opacity:1;"><g transform="translate(152.468198, 245.491699)"><path style="stroke:none;" d="M 20.640625 -10.96875 C 20.617188 -10.5 20.425781 -10.101562 20.0625 -9.78125 C 19.695312 -9.457031 19.269531 -9.296875 18.78125 -9.296875 L 5.09375 -9.296875 C 5.269531 -7.398438 5.988281 -5.878906 7.25 -4.734375 C 8.507812 -3.597656 10.046875 -3.03125 11.859375 -3.03125 C 13.097656 -3.03125 14.109375 -3.210938 14.890625 -3.578125 C 15.671875 -3.941406 16.359375 -4.40625 16.953125 -4.96875 C 17.335938 -5.207031 17.710938 -5.328125 18.078125 -5.328125 C 18.515625 -5.328125 18.878906 -5.171875 19.171875 -4.859375 C 19.472656 -4.546875 19.625 -4.179688 19.625 -3.765625 C 19.625 -3.222656 19.367188 -2.734375 18.859375 -2.296875 C 18.109375 -1.546875 17.109375 -0.910156 15.859375 -0.390625 C 14.617188 0.128906 13.347656 0.390625 12.046875 0.390625 C 9.953125 0.390625 8.109375 -0.046875 6.515625 -0.921875 C 4.921875 -1.804688 3.6875 -3.039062 2.8125 -4.625 C 1.945312 -6.207031 1.515625 -7.992188 1.515625 -9.984375 C 1.515625 -12.160156 1.960938 -14.070312 2.859375 -15.71875 C 3.753906 -17.363281 4.929688 -18.628906 6.390625 -19.515625 C 7.859375 -20.398438 9.4375 -20.84375 11.125 -20.84375 C 12.78125 -20.84375 14.332031 -20.410156 15.78125 -19.546875 C 17.226562 -18.691406 18.394531 -17.515625 19.28125 -16.015625 C 20.164062 -14.515625 20.617188 -12.832031 20.640625 -10.96875 Z M 11.125 -17.421875 C 9.664062 -17.421875 8.40625 -17.007812 7.34375 -16.1875 C 6.28125 -15.375 5.582031 -14.113281 5.25 -12.40625 L 16.71875 -12.40625 L 16.71875 -12.71875 C 16.582031 -14.082031 15.960938 -15.207031 14.859375 -16.09375 C 13.765625 -16.976562 12.519531 -17.421875 11.125 -17.421875 Z M 11.125 -17.421875 "/></g></g><g style="fill:rgb(0%,0%,0%);fill-opacity:1;"><g transform="translate(176.066164, 245.491699)"><path style="stroke:none;" d="M 13.140625 -20.84375 C 17.804688 -20.84375 20.140625 -18.039062 20.140625 -12.4375 L 20.140625 -1.859375 C 20.140625 -1.347656 19.960938 -0.910156 19.609375 -0.546875 C 19.265625 -0.179688 18.816406 0 18.265625 0 C 17.753906 0 17.320312 -0.179688 16.96875 -0.546875 C 16.613281 -0.910156 16.4375 -1.347656 16.4375 -1.859375 L 16.4375 -12.40625 C 16.4375 -13.925781 16.085938 -15.140625 15.390625 -16.046875 C 14.691406 -16.960938 13.550781 -17.421875 11.96875 -17.421875 C 10.9375 -17.421875 10 -17.191406 9.15625 -16.734375 C 8.3125 -16.285156 7.648438 -15.675781 7.171875 -14.90625 C 6.691406 -14.144531 6.453125 -13.3125 6.453125 -12.40625 L 6.453125 -1.859375 C 6.453125 -1.347656 6.273438 -0.910156 5.921875 -0.546875 C 5.578125 -0.179688 5.132812 0 4.59375 0 C 4.039062 0 3.597656 -0.171875 3.265625 -0.515625 C 2.929688 -0.867188 2.765625 -1.316406 2.765625 -1.859375 L 2.765625 -18.5 C 2.765625 -19.019531 2.9375 -19.460938 3.28125 -19.828125 C 3.632812 -20.191406 4.070312 -20.375 4.59375 -20.375 C 5.132812 -20.375 5.578125 -20.191406 5.921875 -19.828125 C 6.273438 -19.460938 6.453125 -19.019531 6.453125 -18.5 L 6.453125 -17.140625 C 7.128906 -18.179688 8.066406 -19.054688 9.265625 -19.765625 C 10.472656 -20.484375 11.765625 -20.84375 13.140625 -20.84375 Z M 13.140625 -20.84375 "/></g></g><g style="fill:rgb(0%,0%,0%);fill-opacity:1;"><g transform="translate(200.402776, 245.491699)"><path style="stroke:none;" d="M 20.640625 -10.96875 C 20.617188 -10.5 20.425781 -10.101562 20.0625 -9.78125 C 19.695312 -9.457031 19.269531 -9.296875 18.78125 -9.296875 L 5.09375 -9.296875 C 5.269531 -7.398438 5.988281 -5.878906 7.25 -4.734375 C 8.507812 -3.597656 10.046875 -3.03125 11.859375 -3.03125 C 13.097656 -3.03125 14.109375 -3.210938 14.890625 -3.578125 C 15.671875 -3.941406 16.359375 -4.40625 16.953125 -4.96875 C 17.335938 -5.207031 17.710938 -5.328125 18.078125 -5.328125 C 18.515625 -5.328125 18.878906 -5.171875 19.171875 -4.859375 C 19.472656 -4.546875 19.625 -4.179688 19.625 -3.765625 C 19.625 -3.222656 19.367188 -2.734375 18.859375 -2.296875 C 18.109375 -1.546875 17.109375 -0.910156 15.859375 -0.390625 C 14.617188 0.128906 13.347656 0.390625 12.046875 0.390625 C 9.953125 0.390625 8.109375 -0.046875 6.515625 -0.921875 C 4.921875 -1.804688 3.6875 -3.039062 2.8125 -4.625 C 1.945312 -6.207031 1.515625 -7.992188 1.515625 -9.984375 C 1.515625 -12.160156 1.960938 -14.070312 2.859375 -15.71875 C 3.753906 -17.363281 4.929688 -18.628906 6.390625 -19.515625 C 7.859375 -20.398438 9.4375 -20.84375 11.125 -20.84375 C 12.78125 -20.84375 14.332031 -20.410156 15.78125 -19.546875 C 17.226562 -18.691406 18.394531 -17.515625 19.28125 -16.015625 C 20.164062 -14.515625 20.617188 -12.832031 20.640625 -10.96875 Z M 11.125 -17.421875 C 9.664062 -17.421875 8.40625 -17.007812 7.34375 -16.1875 C 6.28125 -15.375 5.582031 -14.113281 5.25 -12.40625 L 16.71875 -12.40625 L 16.71875 -12.71875 C 16.582031 -14.082031 15.960938 -15.207031 14.859375 -16.09375 C 13.765625 -16.976562 12.519531 -17.421875 11.125 -17.421875 Z M 11.125 -17.421875 "/></g></g><g style="fill:rgb(0%,0%,0%);fill-opacity:1;"><g transform="translate(224.00074, 245.491699)"><path style="stroke:none;" d="M 12.90625 -20.84375 C 13.582031 -20.84375 14.164062 -20.664062 14.65625 -20.3125 C 15.144531 -19.957031 15.390625 -19.523438 15.390625 -19.015625 C 15.390625 -18.390625 15.226562 -17.914062 14.90625 -17.59375 C 14.582031 -17.269531 14.1875 -17.109375 13.71875 -17.109375 C 13.488281 -17.109375 13.140625 -17.1875 12.671875 -17.34375 C 12.128906 -17.519531 11.703125 -17.609375 11.390625 -17.609375 C 10.585938 -17.609375 9.800781 -17.328125 9.03125 -16.765625 C 8.269531 -16.210938 7.648438 -15.445312 7.171875 -14.46875 C 6.691406 -13.5 6.453125 -12.421875 6.453125 -11.234375 L 6.453125 -1.859375 C 6.453125 -1.347656 6.273438 -0.910156 5.921875 -0.546875 C 5.578125 -0.179688 5.132812 0 4.59375 0 C 4.039062 0 3.597656 -0.171875 3.265625 -0.515625 C 2.929688 -0.867188 2.765625 -1.316406 2.765625 -1.859375 L 2.765625 -18.5 C 2.765625 -19.019531 2.9375 -19.460938 3.28125 -19.828125 C 3.632812 -20.191406 4.070312 -20.375 4.59375 -20.375 C 5.132812 -20.375 5.578125 -20.191406 5.921875 -19.828125 C 6.273438 -19.460938 6.453125 -19.019531 6.453125 -18.5 L 6.453125 -16.515625 C 7.023438 -17.785156 7.878906 -18.816406 9.015625 -19.609375 C 10.160156 -20.398438 11.457031 -20.8125 12.90625 -20.84375 Z M 12.90625 -20.84375 "/></g></g><g style="fill:rgb(0%,0%,0%);fill-opacity:1;"><g transform="translate(241.495193, 245.491699)"><path style="stroke:none;" d="M 19.28125 -20.640625 C 19.820312 -20.640625 20.265625 -20.460938 20.609375 -20.109375 C 20.960938 -19.765625 21.140625 -19.304688 21.140625 -18.734375 L 21.140625 -1.859375 C 21.140625 -1.347656 20.960938 -0.910156 20.609375 -0.546875 C 20.265625 -0.179688 19.820312 0 19.28125 0 C 18.738281 0 18.296875 -0.171875 17.953125 -0.515625 C 17.617188 -0.867188 17.453125 -1.316406 17.453125 -1.859375 L 17.453125 -2.875 C 16.773438 -1.96875 15.851562 -1.195312 14.6875 -0.5625 C 13.53125 0.0703125 12.273438 0.390625 10.921875 0.390625 C 9.160156 0.390625 7.5625 -0.0625 6.125 -0.96875 C 4.6875 -1.875 3.554688 -3.132812 2.734375 -4.75 C 1.921875 -6.375 1.515625 -8.195312 1.515625 -10.21875 C 1.515625 -12.238281 1.921875 -14.054688 2.734375 -15.671875 C 3.554688 -17.296875 4.675781 -18.5625 6.09375 -19.46875 C 7.519531 -20.382812 9.09375 -20.84375 10.8125 -20.84375 C 12.1875 -20.84375 13.460938 -20.554688 14.640625 -19.984375 C 15.816406 -19.410156 16.753906 -18.6875 17.453125 -17.8125 L 17.453125 -18.734375 C 17.453125 -19.273438 17.617188 -19.726562 17.953125 -20.09375 C 18.296875 -20.457031 18.738281 -20.640625 19.28125 -20.640625 Z M 11.34375 -3.03125 C 12.5625 -3.03125 13.644531 -3.335938 14.59375 -3.953125 C 15.539062 -4.578125 16.28125 -5.429688 16.8125 -6.515625 C 17.34375 -7.609375 17.609375 -8.84375 17.609375 -10.21875 C 17.609375 -11.570312 17.34375 -12.789062 16.8125 -13.875 C 16.28125 -14.96875 15.539062 -15.832031 14.59375 -16.46875 C 13.644531 -17.101562 12.5625 -17.421875 11.34375 -17.421875 C 10.132812 -17.421875 9.054688 -17.109375 8.109375 -16.484375 C 7.160156 -15.859375 6.421875 -15 5.890625 -13.90625 C 5.359375 -12.820312 5.09375 -11.59375 5.09375 -10.21875 C 5.09375 -8.84375 5.359375 -7.609375 5.890625 -6.515625 C 6.421875 -5.429688 7.160156 -4.578125 8.109375 -3.953125 C 9.054688 -3.335938 10.132812 -3.03125 11.34375 -3.03125 Z M 11.34375 -3.03125 "/></g></g><g style="fill:rgb(0%,0%,0%);fill-opacity:1;"><g transform="translate(266.803701, 245.491699)"><path style="stroke:none;" d="M 8.28125 -16.75 L 8.28125 -5.171875 C 8.28125 -3.878906 8.863281 -3.234375 10.03125 -3.234375 C 10.207031 -3.234375 10.453125 -3.273438 10.765625 -3.359375 C 11.078125 -3.453125 11.320312 -3.5 11.5 -3.5 C 11.84375 -3.5 12.128906 -3.351562 12.359375 -3.0625 C 12.597656 -2.78125 12.71875 -2.421875 12.71875 -1.984375 C 12.71875 -1.441406 12.40625 -0.972656 11.78125 -0.578125 C 11.15625 -0.191406 10.457031 0 9.6875 0 C 8.820312 0 8.035156 -0.0859375 7.328125 -0.265625 C 6.617188 -0.453125 5.984375 -0.914062 5.421875 -1.65625 C 4.867188 -2.394531 4.59375 -3.515625 4.59375 -5.015625 L 4.59375 -16.75 L 2.328125 -16.75 C 1.835938 -16.75 1.429688 -16.910156 1.109375 -17.234375 C 0.785156 -17.566406 0.625 -17.976562 0.625 -18.46875 C 0.625 -18.957031 0.785156 -19.359375 1.109375 -19.671875 C 1.429688 -19.984375 1.835938 -20.140625 2.328125 -20.140625 L 4.59375 -20.140625 L 4.59375 -23.40625 C 4.59375 -23.925781 4.765625 -24.363281 5.109375 -24.71875 C 5.460938 -25.082031 5.910156 -25.265625 6.453125 -25.265625 C 6.972656 -25.265625 7.40625 -25.082031 7.75 -24.71875 C 8.101562 -24.363281 8.28125 -23.925781 8.28125 -23.40625 L 8.28125 -20.140625 L 11.5 -20.140625 C 12 -20.140625 12.410156 -19.976562 12.734375 -19.65625 C 13.054688 -19.332031 13.21875 -18.921875 13.21875 -18.421875 C 13.21875 -17.929688 13.054688 -17.53125 12.734375 -17.21875 C 12.410156 -16.90625 12 -16.75 11.5 -16.75 Z M 8.28125 -16.75 "/></g></g><g style="fill:rgb(0%,0%,0%);fill-opacity:1;"><g transform="translate(283.015244, 245.491699)"><path style="stroke:none;" d="M 6.265625 -1.859375 C 6.265625 -1.347656 6.085938 -0.910156 5.734375 -0.546875 C 5.378906 -0.179688 4.929688 0 4.390625 0 C 3.867188 0 3.429688 -0.179688 3.078125 -0.546875 C 2.734375 -0.910156 2.5625 -1.347656 2.5625 -1.859375 L 2.5625 -18.703125 C 2.5625 -19.210938 2.734375 -19.648438 3.078125 -20.015625 C 3.429688 -20.378906 3.867188 -20.5625 4.390625 -20.5625 C 4.929688 -20.5625 5.378906 -20.378906 5.734375 -20.015625 C 6.085938 -19.648438 6.265625 -19.210938 6.265625 -18.703125 Z M 4.390625 -23.125 C 3.640625 -23.125 3.101562 -23.257812 2.78125 -23.53125 C 2.457031 -23.8125 2.296875 -24.25 2.296875 -24.84375 L 2.296875 -25.46875 C 2.296875 -26.082031 2.46875 -26.519531 2.8125 -26.78125 C 3.164062 -27.039062 3.707031 -27.171875 4.4375 -27.171875 C 5.15625 -27.171875 5.675781 -27.035156 6 -26.765625 C 6.332031 -26.492188 6.5 -26.0625 6.5 -25.46875 L 6.5 -24.84375 C 6.5 -24.21875 6.328125 -23.773438 5.984375 -23.515625 C 5.648438 -23.253906 5.117188 -23.125 4.390625 -23.125 Z M 4.390625 -23.125 "/></g></g><g style="fill:rgb(0%,0%,0%);fill-opacity:1;"><g transform="translate(293.278772, 245.491699)"><path style="stroke:none;" d="M 22.046875 -10.1875 C 22.046875 -8.164062 21.59375 -6.347656 20.6875 -4.734375 C 19.78125 -3.128906 18.539062 -1.875 16.96875 -0.96875 C 15.394531 -0.0625 13.664062 0.390625 11.78125 0.390625 C 9.882812 0.390625 8.148438 -0.0625 6.578125 -0.96875 C 5.015625 -1.875 3.78125 -3.128906 2.875 -4.734375 C 1.96875 -6.347656 1.515625 -8.164062 1.515625 -10.1875 C 1.515625 -12.207031 1.96875 -14.03125 2.875 -15.65625 C 3.78125 -17.289062 5.015625 -18.5625 6.578125 -19.46875 C 8.148438 -20.382812 9.882812 -20.84375 11.78125 -20.84375 C 13.664062 -20.84375 15.394531 -20.382812 16.96875 -19.46875 C 18.539062 -18.5625 19.78125 -17.289062 20.6875 -15.65625 C 21.59375 -14.03125 22.046875 -12.207031 22.046875 -10.1875 Z M 18.34375 -10.1875 C 18.34375 -11.582031 18.050781 -12.832031 17.46875 -13.9375 C 16.882812 -15.039062 16.09375 -15.894531 15.09375 -16.5 C 14.101562 -17.113281 13 -17.421875 11.78125 -17.421875 C 10.5625 -17.421875 9.453125 -17.113281 8.453125 -16.5 C 7.453125 -15.894531 6.660156 -15.039062 6.078125 -13.9375 C 5.492188 -12.832031 5.203125 -11.582031 5.203125 -10.1875 C 5.203125 -8.8125 5.492188 -7.578125 6.078125 -6.484375 C 6.660156 -5.398438 7.453125 -4.550781 8.453125 -3.9375 C 9.453125 -3.332031 10.5625 -3.03125 11.78125 -3.03125 C 13 -3.03125 14.101562 -3.332031 15.09375 -3.9375 C 16.09375 -4.550781 16.882812 -5.398438 17.46875 -6.484375 C 18.050781 -7.578125 18.34375 -8.8125 18.34375 -10.1875 Z M 18.34375 -10.1875 "/></g></g><g style="fill:rgb(0%,0%,0%);fill-opacity:1;"><g transform="translate(318.27627, 245.491699)"><path style="stroke:none;" d="M 13.140625 -20.84375 C 17.804688 -20.84375 20.140625 -18.039062 20.140625 -12.4375 L 20.140625 -1.859375 C 20.140625 -1.347656 19.960938 -0.910156 19.609375 -0.546875 C 19.265625 -0.179688 18.816406 0 18.265625 0 C 17.753906 0 17.320312 -0.179688 16.96875 -0.546875 C 16.613281 -0.910156 16.4375 -1.347656 16.4375 -1.859375 L 16.4375 -12.40625 C 16.4375 -13.925781 16.085938 -15.140625 15.390625 -16.046875 C 14.691406 -16.960938 13.550781 -17.421875 11.96875 -17.421875 C 10.9375 -17.421875 10 -17.191406 9.15625 -16.734375 C 8.3125 -16.285156 7.648438 -15.675781 7.171875 -14.90625 C 6.691406 -14.144531 6.453125 -13.3125 6.453125 -12.40625 L 6.453125 -1.859375 C 6.453125 -1.347656 6.273438 -0.910156 5.921875 -0.546875 C 5.578125 -0.179688 5.132812 0 4.59375 0 C 4.039062 0 3.597656 -0.171875 3.265625 -0.515625 C 2.929688 -0.867188 2.765625 -1.316406 2.765625 -1.859375 L 2.765625 -18.5 C 2.765625 -19.019531 2.9375 -19.460938 3.28125 -19.828125 C 3.632812 -20.191406 4.070312 -20.375 4.59375 -20.375 C 5.132812 -20.375 5.578125 -20.191406 5.921875 -19.828125 C 6.273438 -19.460938 6.453125 -19.019531 6.453125 -18.5 L 6.453125 -17.140625 C 7.128906 -18.179688 8.066406 -19.054688 9.265625 -19.765625 C 10.472656 -20.484375 11.765625 -20.84375 13.140625 -20.84375 Z M 13.140625 -20.84375 "/></g></g><path style=" stroke:none;fill-rule:nonzero;fill:rgb(100%,34.118652%,34.118652%);fill-opacity:1;" d="M 91.453125 173.292969 L 70.6875 162.105469 L 49.917969 173.292969 L 49.917969 198.824219 L 70.6875 210.015625 L 91.453125 198.824219 Z M 86.839844 174.183594 L 70.6875 182.886719 L 54.53125 174.183594 L 70.6875 165.476562 Z M 52.886719 176.667969 L 69.203125 185.464844 L 69.203125 205.839844 L 52.886719 197.042969 Z M 72.167969 205.839844 L 72.167969 185.464844 L 88.488281 176.671875 L 88.488281 197.042969 L 72.167969 205.839844 "/><g clip-rule="nonzero" clip-path="url(#clip1)"><path style=" stroke:none;fill-rule:nonzero;fill:rgb(100%,34.118652%,34.118652%);fill-opacity:1;" d="M 107.769531 217.234375 C 104.246094 217.238281 101.210938 219.71875 100.5 223.171875 L 87.003906 223.171875 C 86.183594 223.171875 85.519531 222.507812 85.519531 221.6875 L 85.519531 208.328125 L 82.554688 208.328125 L 82.554688 221.6875 C 82.554688 224.144531 84.546875 226.140625 87.003906 226.140625 L 100.5 226.140625 C 101.28125 229.96875 104.890625 232.535156 108.761719 232.011719 C 112.628906 231.488281 115.429688 228.054688 115.167969 224.160156 C 114.90625 220.261719 111.671875 217.234375 107.769531 217.234375 Z M 107.769531 229.109375 C 105.3125 229.109375 103.320312 227.113281 103.320312 224.65625 C 103.320312 222.195312 105.3125 220.203125 107.769531 220.203125 C 110.226562 220.203125 112.21875 222.195312 112.21875 224.65625 C 112.21875 227.113281 110.226562 229.109375 107.769531 229.109375 "/></g><g clip-rule="nonzero" clip-path="url(#clip2)"><path style=" stroke:none;fill-rule:nonzero;fill:rgb(100%,34.118652%,34.118652%);fill-opacity:1;" d="M 55.851562 221.6875 C 55.851562 222.507812 55.1875 223.171875 54.371094 223.171875 L 40.871094 223.171875 C 40.109375 219.4375 36.648438 216.886719 32.859375 217.269531 C 29.070312 217.652344 26.1875 220.84375 26.1875 224.65625 C 26.1875 228.464844 29.070312 231.65625 32.859375 232.039062 C 36.648438 232.421875 40.109375 229.875 40.871094 226.140625 L 54.371094 226.140625 C 56.828125 226.140625 58.820312 224.144531 58.820312 221.6875 L 58.820312 208.324219 L 55.851562 208.324219 Z M 33.605469 229.109375 C 31.144531 229.109375 29.152344 227.113281 29.152344 224.65625 C 29.152344 222.195312 31.144531 220.203125 33.605469 220.203125 C 36.0625 220.203125 38.054688 222.195312 38.054688 224.65625 C 38.054688 227.113281 36.0625 229.109375 33.605469 229.109375 "/></g><g clip-rule="nonzero" clip-path="url(#clip3)"><path style=" stroke:none;fill-rule:nonzero;fill:rgb(100%,34.118652%,34.118652%);fill-opacity:1;" d="M 85.519531 153.398438 C 85.519531 152.582031 86.183594 151.914062 87.003906 151.914062 L 100.5 151.914062 C 101.261719 155.648438 104.726562 158.199219 108.511719 157.816406 C 112.300781 157.433594 115.183594 154.242188 115.183594 150.429688 C 115.183594 146.621094 112.300781 143.429688 108.511719 143.046875 C 104.726562 142.664062 101.261719 145.214844 100.5 148.945312 L 87.003906 148.945312 C 84.546875 148.945312 82.550781 150.941406 82.550781 153.398438 L 82.550781 165.277344 L 85.519531 165.277344 Z M 107.769531 145.976562 C 110.226562 145.976562 112.21875 147.972656 112.21875 150.429688 C 112.21875 152.890625 110.226562 154.886719 107.769531 154.886719 C 105.3125 154.886719 103.320312 152.890625 103.320312 150.429688 C 103.320312 147.972656 105.3125 145.976562 107.769531 145.976562 "/></g><path style=" stroke:none;fill-rule:nonzero;fill:rgb(100%,34.118652%,34.118652%);fill-opacity:1;" d="M 33.605469 157.855469 C 37.125 157.847656 40.160156 155.371094 40.871094 151.914062 L 54.371094 151.914062 C 55.1875 151.914062 55.851562 152.582031 55.851562 153.398438 L 55.851562 165.277344 L 58.820312 165.277344 L 58.820312 153.398438 C 58.820312 150.941406 56.828125 148.945312 54.371094 148.945312 L 40.871094 148.945312 C 40.089844 145.121094 36.480469 142.554688 32.613281 143.074219 C 28.746094 143.597656 25.941406 147.03125 26.203125 150.925781 C 26.464844 154.824219 29.699219 157.851562 33.605469 157.855469 Z M 33.605469 145.976562 C 36.0625 145.976562 38.054688 147.972656 38.054688 150.429688 C 38.054688 152.890625 36.0625 154.886719 33.605469 154.886719 C 31.144531 154.886719 29.152344 152.890625 29.152344 150.429688 C 29.152344 147.972656 31.144531 145.976562 33.605469 145.976562 "/><path style=" stroke:none;fill-rule:nonzero;fill:rgb(100%,34.118652%,34.118652%);fill-opacity:1;" d="M 106.285156 148.945312 L 109.253906 148.945312 L 109.253906 151.914062 L 106.285156 151.914062 L 106.285156 148.945312 "/><g clip-rule="nonzero" clip-path="url(#clip4)"><path style=" stroke:none;fill-rule:nonzero;fill:rgb(100%,34.118652%,34.118652%);fill-opacity:1;" d="M 107.769531 180.121094 C 104.246094 180.125 101.210938 182.605469 100.5 186.058594 L 94.417969 186.058594 L 94.417969 189.027344 L 100.5 189.027344 C 101.28125 192.855469 104.890625 195.421875 108.761719 194.898438 C 112.628906 194.375 115.429688 190.945312 115.167969 187.046875 C 114.90625 183.148438 111.671875 180.121094 107.769531 180.121094 Z M 107.769531 191.996094 C 105.3125 191.996094 103.320312 190.003906 103.320312 187.542969 C 103.320312 185.082031 105.3125 183.089844 107.769531 183.089844 C 110.226562 183.089844 112.21875 185.082031 112.21875 187.542969 C 112.21875 190.003906 110.226562 191.996094 107.769531 191.996094 "/></g><path style=" stroke:none;fill-rule:nonzero;fill:rgb(100%,34.118652%,34.118652%);fill-opacity:1;" d="M 106.285156 186.058594 L 109.253906 186.058594 L 109.253906 189.027344 L 106.285156 189.027344 L 106.285156 186.058594 "/><path style=" stroke:none;fill-rule:nonzero;fill:rgb(100%,34.118652%,34.118652%);fill-opacity:1;" d="M 106.285156 223.171875 L 109.253906 223.171875 L 109.253906 226.140625 L 106.285156 226.140625 L 106.285156 223.171875 "/><path style=" stroke:none;fill-rule:nonzero;fill:rgb(100%,34.118652%,34.118652%);fill-opacity:1;" d="M 32.121094 223.171875 L 35.085938 223.171875 L 35.085938 226.140625 L 32.121094 226.140625 L 32.121094 223.171875 "/><path style=" stroke:none;fill-rule:nonzero;fill:rgb(100%,34.118652%,34.118652%);fill-opacity:1;" d="M 32.121094 148.945312 L 35.085938 148.945312 L 35.085938 151.914062 L 32.121094 151.914062 L 32.121094 148.945312 "/><path style=" stroke:none;fill-rule:nonzero;fill:rgb(100%,34.118652%,34.118652%);fill-opacity:1;" d="M 33.605469 194.964844 C 37.125 194.960938 40.160156 192.480469 40.871094 189.027344 L 46.953125 189.027344 L 46.953125 186.058594 L 40.871094 186.058594 C 40.089844 182.230469 36.480469 179.664062 32.613281 180.1875 C 28.746094 180.710938 25.941406 184.144531 26.203125 188.039062 C 26.464844 191.9375 29.699219 194.964844 33.605469 194.964844 Z M 33.605469 183.089844 C 36.0625 183.089844 38.054688 185.082031 38.054688 187.542969 C 38.054688 190.003906 36.0625 191.996094 33.605469 191.996094 C 31.144531 191.996094 29.152344 190.003906 29.152344 187.542969 C 29.152344 185.082031 31.144531 183.089844 33.605469 183.089844 "/><path style=" stroke:none;fill-rule:nonzero;fill:rgb(100%,34.118652%,34.118652%);fill-opacity:1;" d="M 32.121094 186.058594 L 35.085938 186.058594 L 35.085938 189.027344 L 32.121094 189.027344 L 32.121094 186.058594 "/></g></svg>