<?xml version="1.0" encoding="UTF-8"?><svg xmlns="http://www.w3.org/2000/svg" xmlns:xlink="http://www.w3.org/1999/xlink" width="375pt" zoomAndPan="magnify" viewBox="0 0 375 374.999991" height="374.999991pt" preserveAspectRatio="xMidYMid meet" version="1.2"><defs><clipPath xml:id="clip1" id="clip1"><path d="M 199.316406 208.207031 L 232.066406 208.207031 L 232.066406 232.078125 L 199.316406 232.078125 Z M 199.316406 208.207031 "/></clipPath><clipPath xml:id="clip2" id="clip2"><path d="M 143 208 L 176 208 L 176 232.480469 L 143 232.480469 Z M 143 208 "/></clipPath><clipPath xml:id="clip3" id="clip3"><path d="M 199.316406 143.007812 L 232.066406 143.007812 L 232.066406 165.453125 L 199.316406 165.453125 Z M 199.316406 143.007812 "/></clipPath><clipPath xml:id="clip4" id="clip4"><path d="M 211.242188 180.0625 L 232.066406 180.0625 L 232.066406 195 L 211.242188 195 Z M 211.242188 180.0625 "/></clipPath></defs><g xml:id="surface1" id="surface1"><rect x="0" width="375" y="0" height="374.999991" style="fill:rgb(100%,100%,100%);fill-opacity:1;stroke:none;"/><rect x="0" width="375" y="0" height="374.999991" style="fill:rgb(100%,100%,100%);fill-opacity:1;stroke:none;"/><path style=" stroke:none;fill-rule:nonzero;fill:rgb(100%,34.118652%,34.118652%);fill-opacity:1;" d="M 208.332031 173.292969 L 187.566406 162.105469 L 166.800781 173.292969 L 166.800781 198.824219 L 187.566406 210.015625 L 208.332031 198.824219 Z M 203.722656 174.183594 L 187.566406 182.886719 L 171.410156 174.183594 L 187.566406 165.476562 Z M 169.765625 176.667969 L 186.082031 185.464844 L 186.082031 205.839844 L 169.765625 197.042969 Z M 189.050781 205.839844 L 189.050781 185.464844 L 205.367188 176.671875 L 205.367188 197.042969 L 189.050781 205.839844 "/><g clip-rule="nonzero" clip-path="url(#clip1)"><path style=" stroke:none;fill-rule:nonzero;fill:rgb(100%,34.118652%,34.118652%);fill-opacity:1;" d="M 224.648438 217.234375 C 221.125 217.238281 218.089844 219.71875 217.382812 223.171875 L 203.882812 223.171875 C 203.0625 223.171875 202.398438 222.507812 202.398438 221.6875 L 202.398438 208.328125 L 199.433594 208.328125 L 199.433594 221.6875 C 199.433594 224.144531 201.425781 226.140625 203.882812 226.140625 L 217.382812 226.140625 C 218.160156 229.96875 221.773438 232.535156 225.640625 232.011719 C 229.507812 231.488281 232.308594 228.054688 232.046875 224.160156 C 231.785156 220.261719 228.550781 217.234375 224.648438 217.234375 Z M 224.648438 229.109375 C 222.191406 229.109375 220.199219 227.113281 220.199219 224.65625 C 220.199219 222.195312 222.191406 220.203125 224.648438 220.203125 C 227.105469 220.203125 229.101562 222.195312 229.101562 224.65625 C 229.101562 227.113281 227.105469 229.109375 224.648438 229.109375 "/></g><g clip-rule="nonzero" clip-path="url(#clip2)"><path style=" stroke:none;fill-rule:nonzero;fill:rgb(100%,34.118652%,34.118652%);fill-opacity:1;" d="M 172.734375 221.6875 C 172.734375 222.507812 172.070312 223.171875 171.25 223.171875 L 157.75 223.171875 C 156.992188 219.4375 153.527344 216.886719 149.738281 217.269531 C 145.953125 217.652344 143.066406 220.84375 143.066406 224.65625 C 143.066406 228.464844 145.953125 231.65625 149.738281 232.039062 C 153.527344 232.421875 156.992188 229.875 157.75 226.140625 L 171.25 226.140625 C 173.707031 226.140625 175.699219 224.144531 175.699219 221.6875 L 175.699219 208.324219 L 172.734375 208.324219 Z M 150.484375 229.109375 C 148.027344 229.109375 146.035156 227.113281 146.035156 224.65625 C 146.035156 222.195312 148.027344 220.203125 150.484375 220.203125 C 152.941406 220.203125 154.933594 222.195312 154.933594 224.65625 C 154.933594 227.113281 152.941406 229.109375 150.484375 229.109375 "/></g><g clip-rule="nonzero" clip-path="url(#clip3)"><path style=" stroke:none;fill-rule:nonzero;fill:rgb(100%,34.118652%,34.118652%);fill-opacity:1;" d="M 202.398438 153.398438 C 202.398438 152.582031 203.0625 151.914062 203.882812 151.914062 L 217.382812 151.914062 C 218.140625 155.648438 221.605469 158.199219 225.394531 157.816406 C 229.179688 157.433594 232.066406 154.242188 232.066406 150.429688 C 232.066406 146.621094 229.179688 143.429688 225.394531 143.046875 C 221.605469 142.664062 218.144531 145.214844 217.382812 148.945312 L 203.882812 148.945312 C 201.425781 148.945312 199.433594 150.941406 199.433594 153.398438 L 199.433594 165.277344 L 202.398438 165.277344 Z M 224.648438 145.976562 C 227.105469 145.976562 229.101562 147.972656 229.101562 150.429688 C 229.101562 152.890625 227.105469 154.886719 224.648438 154.886719 C 222.191406 154.886719 220.199219 152.890625 220.199219 150.429688 C 220.199219 147.972656 222.191406 145.976562 224.648438 145.976562 "/></g><path style=" stroke:none;fill-rule:nonzero;fill:rgb(100%,34.118652%,34.118652%);fill-opacity:1;" d="M 150.484375 157.855469 C 154.007812 157.847656 157.042969 155.371094 157.75 151.914062 L 171.25 151.914062 C 172.070312 151.914062 172.734375 152.582031 172.734375 153.398438 L 172.734375 165.277344 L 175.699219 165.277344 L 175.699219 153.398438 C 175.699219 150.941406 173.707031 148.945312 171.25 148.945312 L 157.75 148.945312 C 156.972656 145.121094 153.359375 142.554688 149.492188 143.074219 C 145.625 143.597656 142.824219 147.03125 143.085938 150.925781 C 143.347656 154.824219 146.578125 157.851562 150.484375 157.855469 Z M 150.484375 145.976562 C 152.941406 145.976562 154.933594 147.972656 154.933594 150.429688 C 154.933594 152.890625 152.941406 154.886719 150.484375 154.886719 C 148.027344 154.886719 146.035156 152.890625 146.035156 150.429688 C 146.035156 147.972656 148.027344 145.976562 150.484375 145.976562 "/><path style=" stroke:none;fill-rule:nonzero;fill:rgb(100%,34.118652%,34.118652%);fill-opacity:1;" d="M 223.164062 148.945312 L 226.132812 148.945312 L 226.132812 151.914062 L 223.164062 151.914062 L 223.164062 148.945312 "/><g clip-rule="nonzero" clip-path="url(#clip4)"><path style=" stroke:none;fill-rule:nonzero;fill:rgb(100%,34.118652%,34.118652%);fill-opacity:1;" d="M 224.648438 180.121094 C 221.125 180.125 218.089844 182.605469 217.382812 186.058594 L 211.300781 186.058594 L 211.300781 189.027344 L 217.382812 189.027344 C 218.160156 192.855469 221.773438 195.421875 225.640625 194.898438 C 229.507812 194.375 232.308594 190.945312 232.046875 187.046875 C 231.785156 183.148438 228.550781 180.121094 224.648438 180.121094 Z M 224.648438 191.996094 C 222.191406 191.996094 220.199219 190.003906 220.199219 187.542969 C 220.199219 185.082031 222.191406 183.089844 224.648438 183.089844 C 227.105469 183.089844 229.101562 185.082031 229.101562 187.542969 C 229.101562 190.003906 227.105469 191.996094 224.648438 191.996094 "/></g><path style=" stroke:none;fill-rule:nonzero;fill:rgb(100%,34.118652%,34.118652%);fill-opacity:1;" d="M 223.164062 186.058594 L 226.132812 186.058594 L 226.132812 189.027344 L 223.164062 189.027344 L 223.164062 186.058594 "/><path style=" stroke:none;fill-rule:nonzero;fill:rgb(100%,34.118652%,34.118652%);fill-opacity:1;" d="M 223.164062 223.171875 L 226.132812 223.171875 L 226.132812 226.140625 L 223.164062 226.140625 L 223.164062 223.171875 "/><path style=" stroke:none;fill-rule:nonzero;fill:rgb(100%,34.118652%,34.118652%);fill-opacity:1;" d="M 149 223.171875 L 151.964844 223.171875 L 151.964844 226.140625 L 149 226.140625 L 149 223.171875 "/><path style=" stroke:none;fill-rule:nonzero;fill:rgb(100%,34.118652%,34.118652%);fill-opacity:1;" d="M 149 148.945312 L 151.964844 148.945312 L 151.964844 151.914062 L 149 151.914062 L 149 148.945312 "/><path style=" stroke:none;fill-rule:nonzero;fill:rgb(100%,34.118652%,34.118652%);fill-opacity:1;" d="M 150.484375 194.964844 C 154.007812 194.960938 157.042969 192.480469 157.75 189.027344 L 163.832031 189.027344 L 163.832031 186.058594 L 157.75 186.058594 C 156.972656 182.230469 153.359375 179.664062 149.492188 180.1875 C 145.625 180.710938 142.824219 184.144531 143.085938 188.039062 C 143.347656 191.9375 146.578125 194.964844 150.484375 194.964844 Z M 150.484375 183.089844 C 152.941406 183.089844 154.933594 185.082031 154.933594 187.542969 C 154.933594 190.003906 152.941406 191.996094 150.484375 191.996094 C 148.027344 191.996094 146.035156 190.003906 146.035156 187.542969 C 146.035156 185.082031 148.027344 183.089844 150.484375 183.089844 "/><path style=" stroke:none;fill-rule:nonzero;fill:rgb(100%,34.118652%,34.118652%);fill-opacity:1;" d="M 149 186.058594 L 151.964844 186.058594 L 151.964844 189.027344 L 149 189.027344 L 149 186.058594 "/></g></svg>